<svg xmlns="http://www.w3.org/2000/svg" viewBox="0 0 800 600" role="img" aria-label="Üretim tesisi">
  <defs>
    <linearGradient id="fac-sky" x1="0" y1="0" x2="0" y2="1">
      <stop offset="0" stop-color="#eaf3ff"></stop>
      <stop offset="1" stop-color="#dceaf9"></stop>
    </linearGradient>
    <linearGradient id="fac-b1" x1="0" y1="0" x2="0" y2="1">
      <stop offset="0" stop-color="#0d3b6f"></stop>
      <stop offset="1" stop-color="#0a2c54"></stop>
    </linearGradient>
  </defs>

  <rect width="800" height="600" fill="url(#fac-sky)"></rect>
  <circle cx="660" cy="120" r="46" fill="#bfe0ff" opacity=".5"></circle>

  
  <rect x="0" y="470" width="800" height="130" fill="#e4eaf2"></rect>
  <rect x="0" y="470" width="800" height="6" fill="#cfdcec"></rect>

  
  <g>
    <rect x="120" y="300" width="360" height="172" fill="url(#fac-b1)"></rect>
    
    <path d="M120 300 l40 -34 v34 z M180 300 l40 -34 v34 z M240 300 l40 -34 v34 z M300 300 l40 -34 v34 z M360 300 l40 -34 v34 z M420 300 l40 -34 v34 z" fill="#1763c9"></path>
    
    <g fill="#bfe0ff" opacity=".85">
      <rect x="146" y="330" width="40" height="34" rx="3"></rect>
      <rect x="200" y="330" width="40" height="34" rx="3"></rect>
      <rect x="254" y="330" width="40" height="34" rx="3"></rect>
      <rect x="362" y="330" width="40" height="34" rx="3"></rect>
      <rect x="416" y="330" width="40" height="34" rx="3"></rect>
    </g>
    
    <rect x="300" y="392" width="56" height="80" rx="4" fill="#2e7be0"></rect>
    <line x1="328" y1="392" x2="328" y2="472" stroke="#0a2c54" stroke-width="2"></line>
  </g>

  
  <g>
    <rect x="500" y="250" width="70" height="222" rx="8" fill="#d3dded"></rect>
    <rect x="500" y="250" width="70" height="222" rx="8" fill="none" stroke="#b9cbe1" stroke-width="2"></rect>
    <line x1="500" y1="300" x2="570" y2="300" stroke="#b9cbe1" stroke-width="2"></line>
    <line x1="500" y1="360" x2="570" y2="360" stroke="#b9cbe1" stroke-width="2"></line>
    <line x1="500" y1="420" x2="570" y2="420" stroke="#b9cbe1" stroke-width="2"></line>
    <ellipse cx="535" cy="250" rx="35" ry="12" fill="#c2d2e6"></ellipse>
  </g>

  
  <rect x="590" y="360" width="120" height="112" fill="#0d3b6f"></rect>
  <g fill="#bfe0ff" opacity=".8">
    <rect x="606" y="384" width="28" height="24" rx="3"></rect>
    <rect x="648" y="384" width="28" height="24" rx="3"></rect>
    <rect x="606" y="420" width="28" height="24" rx="3"></rect>
    <rect x="648" y="420" width="28" height="24" rx="3"></rect>
  </g>

  
  <rect x="448" y="220" width="20" height="80" fill="#0a2c54"></rect>
  <g fill="#ffffff" opacity=".7">
    <circle cx="458" cy="206" r="14"></circle>
    <circle cx="476" cy="192" r="11"></circle>
    <circle cx="444" cy="190" r="9"></circle>
  </g>

  
  <g>
    <rect x="64" y="430" width="8" height="42" fill="#0a9aa3"></rect>
    <circle cx="68" cy="424" r="22" fill="#0a9aa3"></circle>
    <circle cx="68" cy="424" r="22" fill="#37c0c9" opacity=".3"></circle>
    <rect x="746" y="436" width="8" height="36" fill="#0a9aa3"></rect>
    <circle cx="750" cy="430" r="18" fill="#0a9aa3"></circle>
  </g>
</svg>