<svg xmlns="http://www.w3.org/2000/svg" viewBox="0 0 800 600" role="img" aria-label="Laboratuvar / kalite kontrol">
  <defs>
    <linearGradient id="lab-bg" x1="0" y1="0" x2="0" y2="1">
      <stop offset="0" stop-color="#f4f9ff"></stop>
      <stop offset="1" stop-color="#e7f0fc"></stop>
    </linearGradient>
    <linearGradient id="lab-liq" x1="0" y1="0" x2="0" y2="1">
      <stop offset="0" stop-color="#37c0c9"></stop>
      <stop offset="1" stop-color="#0a9aa3"></stop>
    </linearGradient>
  </defs>

  <rect width="800" height="600" fill="url(#lab-bg)"></rect>

  
  <rect x="80" y="120" width="640" height="10" rx="3" fill="#d3dded"></rect>
  <g fill="#1763c9" opacity=".14">
    <rect x="120" y="78" width="26" height="42" rx="4"></rect>
    <rect x="160" y="86" width="26" height="34" rx="4"></rect>
    <rect x="540" y="74" width="26" height="46" rx="4"></rect>
    <rect x="580" y="88" width="26" height="32" rx="4"></rect>
    <rect x="620" y="80" width="26" height="40" rx="4"></rect>
  </g>

  
  <rect x="60" y="440" width="680" height="22" rx="5" fill="#cfdcec"></rect>
  <rect x="60" y="462" width="680" height="6" fill="#b9cbe1"></rect>

  
  <g>
    <rect x="150" y="404" width="120" height="38" rx="8" fill="#0a2c54"></rect>
    <rect x="196" y="300" width="20" height="110" rx="6" fill="#0d3b6f"></rect>
    <path d="M206 300 q70 6 60 70 l-26 -4 q6 -42 -42 -44 z" fill="#1763c9"></path>
    <rect x="230" y="356" width="18" height="56" rx="6" fill="#0a2c54"></rect>
    <circle cx="239" cy="420" r="16" fill="#2e7be0"></circle>
    <circle cx="206" cy="296" r="16" fill="#0d3b6f"></circle>
  </g>

  
  <g>
    <path d="M372 330 h26 v44 l40 64 a14 14 0 0 1 -12 22 h-82 a14 14 0 0 1 -12 -22 l40 -64 z" fill="#ffffff" stroke="#b9cbe1" stroke-width="3"></path>
    <path d="M352 426 l24 -20 h12 l24 20 a14 14 0 0 1 -10 30 h-40 a14 14 0 0 1 -10 -30 z" fill="url(#lab-liq)"></path>
    <circle cx="372" cy="446" r="4" fill="#ffffff" opacity=".6"></circle>
    <circle cx="392" cy="436" r="3" fill="#ffffff" opacity=".5"></circle>
  </g>

  
  <g>
    <rect x="470" y="430" width="150" height="14" rx="4" fill="#0a2c54"></rect>
    <g>
      <rect x="486" y="356" width="20" height="80" rx="10" fill="#ffffff" stroke="#b9cbe1" stroke-width="2.5"></rect>
      <rect x="486" y="396" width="20" height="40" rx="10" fill="#2e7be0"></rect>
      <rect x="524" y="356" width="20" height="80" rx="10" fill="#ffffff" stroke="#b9cbe1" stroke-width="2.5"></rect>
      <rect x="524" y="386" width="20" height="50" rx="10" fill="#37c0c9"></rect>
      <rect x="562" y="356" width="20" height="80" rx="10" fill="#ffffff" stroke="#b9cbe1" stroke-width="2.5"></rect>
      <rect x="562" y="404" width="20" height="32" rx="10" fill="#1763c9"></rect>
      <rect x="600" y="356" width="20" height="80" rx="10" fill="#ffffff" stroke="#b9cbe1" stroke-width="2.5"></rect>
      <rect x="600" y="394" width="20" height="42" rx="10" fill="#0a9aa3"></rect>
    </g>
  </g>

  
  <g>
    <rect x="92" y="170" width="180" height="120" rx="14" fill="#ffffff" stroke="#e4eaf2" stroke-width="2"></rect>
    <rect x="112" y="190" width="90" height="10" rx="5" fill="#0f2236"></rect>
    <g>
      <circle cx="120" cy="222" r="8" fill="#1763c9"></circle><path d="M116 222 l3 3 5 -6" stroke="#fff" stroke-width="2.4" fill="none" stroke-linecap="round"></path>
      <rect x="138" y="217" width="110" height="8" rx="4" fill="#c9d7e8"></rect>
      <circle cx="120" cy="248" r="8" fill="#1763c9"></circle><path d="M116 248 l3 3 5 -6" stroke="#fff" stroke-width="2.4" fill="none" stroke-linecap="round"></path>
      <rect x="138" y="243" width="92" height="8" rx="4" fill="#c9d7e8"></rect>
      <circle cx="120" cy="274" r="8" fill="#37c0c9"></circle><path d="M116 274 l3 3 5 -6" stroke="#fff" stroke-width="2.4" fill="none" stroke-linecap="round"></path>
      <rect x="138" y="269" width="74" height="8" rx="4" fill="#c9d7e8"></rect>
    </g>
  </g>
</svg>