<svg xmlns="http://www.w3.org/2000/svg" xmlns:xlink="http://www.w3.org/1999/xlink" width="239.262" height="50" viewBox="0 0 239.262 50">
  <defs>
    <clipPath id="clip-path">
      <rect id="Rectangle_2134" data-name="Rectangle 2134" width="239.262" height="50" fill="none"></rect>
    </clipPath>
  </defs>
  <g id="Group_7896" data-name="Group 7896" transform="translate(-759 -289)">
    <g id="Group_7895" data-name="Group 7895" transform="translate(759 289)">
      <g id="Group_7894" data-name="Group 7894" transform="translate(0 0)" clip-path="url(#clip-path)">
        <path id="Path_4134" data-name="Path 4134" d="M33.566,51.862a6.529,6.529,0,0,1-2.459-.481,79.671,79.671,0,0,1-15.043-9.258,8.867,8.867,0,0,1-1.153-1.058,72.33,72.33,0,0,0,12.528-3.846c.975,3.009,2.088,5.879,3.118,8.284,1.567,3.668,3.009,6.36,3.009,6.36" transform="translate(-0.746 -1.862)" fill="#215aa3"></path>
        <path id="Path_4135" data-name="Path 4135" d="M36.789,9.668c-.852.467-1.7.893-2.528,1.4a16.676,16.676,0,0,0-5.344,5.467A31.978,31.978,0,0,0,26.762,20.6,16.482,16.482,0,0,0,25.5,28.886,58.567,58.567,0,0,1,11.39,33.172c-.069-.11-.123-.206-.179-.289A10.652,10.652,0,0,1,10.1,30.1a21.646,21.646,0,0,1-.755-6,15.693,15.693,0,0,1,3.173-8.736c.591-.852,2.6-3.119,4.452-5.632C19.192,6.742,21.335,3.4,22.434,1.7c.289-.453.536-.934.81-1.388.068-.123.193-.26.3-.275a3.617,3.617,0,0,1,2.445.427c.591.4.3.37-.11.947-2.39,3.352-3.256,8.064-3.6,10.619a25.016,25.016,0,0,0,.315,8.448,1.03,1.03,0,0,0,.055.193c.014.028.042.041.123.151.165-.385.316-.714.454-1.044a31.154,31.154,0,0,1,5.11-8.517,24.325,24.325,0,0,1,5.275-4.23,2.891,2.891,0,0,1,3.173,2.637" transform="translate(-0.467 0)" fill="#215aa3"></path>
        <path id="Path_4136" data-name="Path 4136" d="M44.691,33.961a40.481,40.481,0,0,1-2.775,11.291,14.413,14.413,0,0,1-3.228,4.96,11.348,11.348,0,0,1-1.168.934c-.248,0-3.874-8.75-5.3-13.16-.275-.825-.563-1.662-.852-2.528,1.429-.618,2.872-1.291,4.314-2.019A100.118,100.118,0,0,0,44.636,28.4a23.568,23.568,0,0,1,.055,5.564" transform="translate(-1.569 -1.42)" fill="#bbb"></path>
        <path id="Path_4137" data-name="Path 4137" d="M45.3,15.9c-.33.234-2.555,1.786-3.832,2.679a.839.839,0,0,0-.083,1.291,1.583,1.583,0,0,1,.164.151,6.38,6.38,0,0,1,.632.742,81.307,81.307,0,0,1-11.2,6.69c-.4.206-.8.4-1.2.591,0-.206-.013-.4-.013-.6-.028-3.077,1.291-5.824,2.775-8.517a3.637,3.637,0,0,1,.234-.385c.013-.027,1.538-2.267,1.7-2.486a10.9,10.9,0,0,1,2.445-2.459.5.5,0,0,1,.8.1c.454.549.605.769,1.044,1.333a.577.577,0,0,0,.687.26,39.368,39.368,0,0,0,4.424-2.459c.33-.234.577.013.741.33.495.851,1.127,2.4.674,2.747" transform="translate(-1.49 -0.636)" fill="#bbb"></path>
        <path id="Path_4138" data-name="Path 4138" d="M1.013,32.113v.028H1c0-.014.013-.014.013-.028" transform="translate(-0.05 -1.606)" fill="#215aa3"></path>
        <path id="Path_4139" data-name="Path 4139" d="M1,32.141h.013v-.028c0,.014-.013.014-.013.028" transform="translate(-0.05 -1.606)" fill="#215aa3"></path>
        <path id="Path_4140" data-name="Path 4140" d="M42.751,25.3a94.471,94.471,0,0,1-9.341,5.289q-2.082,1.03-4.121,1.937c-1.044.467-2.075.893-3.091,1.305A68.847,68.847,0,0,1,12.982,37.8C6.224,39.021,1.375,38.293.248,35.367c-.508-1.305-.219-2.913.7-4.726H.962A3.541,3.541,0,0,0,1.1,32.66c.989,2.541,5.152,3.2,10.989,2.184a63.386,63.386,0,0,0,13.243-4.121c1.044-.453,2.116-.934,3.187-1.429.549-.275,1.112-.549,1.676-.825a82.99,82.99,0,0,0,11.361-6.8C49.331,16.107,53.905,10.379,52.6,7.027c-.453-1.154-1.662-1.607-4.053-1.25-.275.028-.563.083-.879.137-.33.069-.687.151-1.072.248-.412.1-.838.219-1.305.357,0,0-.013-.069-.055-.206a1.744,1.744,0,0,0-.082-.261,1.007,1.007,0,0,0-.083-.234,7.527,7.527,0,0,0-.33-.742,5.6,5.6,0,0,0-1.25-1.566c7.94-2.5,13.985-1.58,15.454,2.624C60.472,10.5,53.712,18.25,42.751,25.3" transform="translate(0 -0.106)" fill="#215aa3"></path>
        <path id="Path_4141" data-name="Path 4141" d="M1.013,32.113v.028H1c0-.014.013-.014.013-.028" transform="translate(-0.05 -1.606)" fill="#215aa3"></path>
        <path id="Path_4142" data-name="Path 4142" d="M40.57,2.378a9.153,9.153,0,0,1,2,3.1c.241.656.592,1.381.766,2.063A8.646,8.646,0,0,0,40.871,8.63c-.209-.108-1.225-4.355-4.607-4.907A7.013,7.013,0,0,0,30.7,5.129c-1.758,1.351-4.033,3.693-5.525,8.544a23.555,23.555,0,0,1,2.97-9.439C30.359.61,36.493-1.4,40.57,2.378" transform="translate(-1.259 -0.017)" fill="#bbb"></path>
        <path id="Path_4143" data-name="Path 4143" d="M154.715,37.1H141.571l3.306-21.453H135.6l-4.436,29h22.462Z" transform="translate(-6.562 -0.782)" fill="#215aa3" fill-rule="evenodd"></path>
        <path id="Path_4144" data-name="Path 4144" d="M120.809,20.107a4.223,4.223,0,0,0-.106-.56,5.544,5.544,0,0,0-5.531-3.9h-4.53l-14.2,28.994h9.408L107.3,41.18h9.229l.451,3.461h8.742ZM109.594,35.33,114.031,24.6l1.533,10.727Z" transform="translate(-4.825 -0.782)" fill="#215aa3" fill-rule="evenodd"></path>
        <path id="Path_4145" data-name="Path 4145" d="M152.111,15.647,150.9,23.02h13.12l-3.188,21.621h9.233L173.2,23.02h7.13a18.406,18.406,0,0,1,3.388-5.28,19.17,19.17,0,0,1,2.275-2.093Z" transform="translate(-7.549 -0.782)" fill="#215aa3" fill-rule="evenodd"></path>
        <path id="Path_4146" data-name="Path 4146" d="M215.158,28.429c0-8.429-5.241-13.631-14.033-13.631a15.554,15.554,0,0,0-11.819,4.959,17.429,17.429,0,0,0-4.313,12.06c0,8.263,5.324,13.55,14.033,13.55A15.589,15.589,0,0,0,211.041,40.2a17.081,17.081,0,0,0,4.116-11.774m-9.2-.849c0,6.535-2.82,10.523-6.774,10.523-3.227,0-5-2.094-5-6.127,0-6.09,2.86-10,6.776-10,3.1,0,5,2.1,5,5.6" transform="translate(-9.254 -0.74)" fill="#215aa3" fill-rule="evenodd"></path>
        <path id="Path_4147" data-name="Path 4147" d="M242.676,15.639l-1.718,11.439,6.438,14.15,3.92-25.589Z" transform="translate(-12.054 -0.782)" fill="#215aa3" fill-rule="evenodd"></path>
        <path id="Path_4148" data-name="Path 4148" d="M244.852,44.637h-7.635l-6.858-15.091a12.824,12.824,0,0,1-.6-3.143v.8a16.253,16.253,0,0,1-.165,2.506L227.42,44.637h-8.589l4.351-29h8.475l6.732,14.8.814,1.769Z" transform="translate(-10.947 -0.782)" fill="#215aa3" fill-rule="evenodd"></path>
        <path id="Path_4149" data-name="Path 4149" d="M89.979,30c2.706-1.478,3.953-3.7,3.953-7.008,0-5.364-3.621-7.34-11.292-7.34H70.584L69.6,22.177H81.261c2.757,0,4.168.282,4.168,2.258,0,2.109-1.295,2.823-3.951,2.823h-3.8l.448-2.657H69.238L66.232,44.645H82.041c7.706,0,11.575-2.989,11.575-8.835A6.093,6.093,0,0,0,89.979,30M80.7,37.9h-4.55l.813-5.48h3.985c2.624,0,3.987.532,3.987,2.508,0,2.175-1.4,2.972-4.235,2.972" transform="translate(-3.313 -0.783)" fill="#215aa3" fill-rule="evenodd"></path>
      </g>
    </g>
  </g>
</svg>